<svg xmlns="http://www.w3.org/2000/svg" xmlns:xlink="http://www.w3.org/1999/xlink" version="1.1" id="Layer_1" x="0px" y="0px" width="48px" height="48px" viewBox="0 0 48 48" enable-background="new 0 0 48 48" xml:space="preserve"><path opacity="1" fill="#fff" enable-background="new    " d="M31.381,25.005c0,0.29-0.249,0.623-0.54,0.666l-10.587,1.203c0.042,0.207,0.166,0.457,0.166,0.705c0,0.25-0.166,0.458-0.249,0.664h9.3c0.375,0,0.666,0.292,0.666,0.664c0,0.374-0.291,0.665-0.666,0.665h-10.38c-0.374,0-0.664-0.291-0.664-0.665c0-0.29,0.457-1.121,0.623-1.368l-1.786-8.305h-2.076c-0.374,0-0.664-0.291-0.664-0.664c0-0.374,0.29-0.665,0.664-0.665h2.574c0.707,0,0.707,0.831,0.831,1.329h12.166c0.373,0,0.664,0.291,0.664,0.664L31.381,25.005L31.381,25.005z M19.755,32.146c-0.705,0-1.328-0.541-1.328-1.328c0-0.789,0.54-1.329,1.328-1.329c0.748,0,1.329,0.54,1.329,1.329C21.084,31.605,20.462,32.146,19.755,32.146z M28.807,32.146c-0.705,0-1.328-0.541-1.328-1.328c0-0.789,0.541-1.329,1.328-1.329c0.791,0,1.33,0.54,1.33,1.329C30.137,31.605,29.514,32.146,28.807,32.146z"/><path xmlns="http://www.w3.org/2000/svg" fill="#fff" opacity="1" enable-background="new    " d="M36.869,12.157C39.736,15.271,41.5,19.42,41.5,24c0,9.679-7.821,17.5-17.5,17.5c-9.684,0-17.5-7.821-17.5-17.5c0-4.58,1.763-8.729,4.63-11.844l-3.19-3.19C4.257,12.898,2,18.182,2,24c0,12.158,9.841,22,22,22c12.158,0,22-9.842,22-22c0-5.818-2.258-11.102-5.94-15.035L36.869,12.157z" transform="rotate(56.1252 24 24)"><animateTransform type="rotate" fill="remove" restart="always" enable-background="new    " accumulate="none" calcMode="linear" repeatCount="indefinite" additive="replace" from="0 24 24" attributeName="transform" attributeType="xml" to="360 24 24" dur="0.6s"/></path></svg>